<svg width="27" height="24" viewBox="0 0 27 24" fill="none" xmlns="http://www.w3.org/2000/svg">
<path d="M10.8403 23.8514C9.49969 23.5821 8.62828 22.272 8.89641 20.9257L9.015 20.3354C9.28828 18.9529 9.79359 17.6376 10.5 16.4415L3.075 16.4415C1.70859 16.4415 0.6 15.3282 0.6 13.956C0.6 12.998 1.14141 12.1644 1.93547 11.7501C1.37344 11.2944 1.0125 10.5954 1.0125 9.81349C1.0125 8.60182 1.87875 7.59209 3.01828 7.37461C2.79141 6.9966 2.6625 6.55646 2.6625 6.08526C2.6625 4.98232 3.37922 4.04508 4.36922 3.72404C4.33313 3.55316 4.3125 3.37193 4.3125 3.18551C4.3125 1.81332 5.42109 0.700024 6.7875 0.700024H11.8148C12.7945 0.700024 13.7484 0.989998 14.5631 1.5337L16.5483 2.86447C17.925 3.78617 18.75 5.33961 18.75 7.00178V8.985V11.4705V12.7598C18.75 14.2718 18.0642 15.6958 16.8938 16.6434L16.5122 16.9489C15.1458 18.0467 14.2125 19.5898 13.8722 21.3089L13.7536 21.8992C13.4855 23.2455 12.1809 24.1206 10.8403 23.8514ZM25.35 15.613H22.05C21.1373 15.613 20.4 14.8725 20.4 13.956L20.4 2.35702C20.4 1.44049 21.1373 0.700024 22.05 0.700024H25.35C26.2627 0.700024 27 1.44049 27 2.35702L27 13.956C27 14.8725 26.2627 15.613 25.35 15.613Z" fill="#374B89"/>
</svg>
