<svg width="42" height="30" viewBox="0 0 42 30" fill="none" xmlns="http://www.w3.org/2000/svg">
<path d="M9.45 30C4.23281 30 0 25.6808 0 20.3571C0 16.1518 2.63812 12.5759 6.31312 11.2567C6.30656 11.0759 6.3 10.8951 6.3 10.7143C6.3 4.79464 10.9987 0 16.8 0C20.6916 0 24.0844 2.15625 25.9022 5.37054C26.8997 4.6875 28.1072 4.28571 29.4 4.28571C32.8781 4.28571 35.7 7.16518 35.7 10.7143C35.7 11.5312 35.5491 12.308 35.28 13.0312C39.1125 13.8214 42 17.2835 42 21.4286C42 26.1629 38.2397 30 33.6 30H9.45ZM14.6344 18.817L19.8844 24.1741C20.5012 24.8036 21.4987 24.8036 22.1091 24.1741L27.3591 18.817C27.9759 18.1875 27.9759 17.1696 27.3591 16.5469C26.7422 15.9241 25.7447 15.9174 25.1344 16.5469L22.575 19.1585V10.1786C22.575 9.28795 21.8728 8.57143 21 8.57143C20.1272 8.57143 19.425 9.28795 19.425 10.1786V19.1585L16.8656 16.5469C16.2487 15.9174 15.2512 15.9174 14.6409 16.5469C14.0306 17.1763 14.0241 18.1942 14.6409 18.817H14.6344Z" fill="white"/>
</svg>
