<svg width="20" height="24" viewBox="0 0 20 24" fill="none" xmlns="http://www.w3.org/2000/svg">
<path d="M11.0089 22.7885C10.4508 23.3354 9.54458 23.3354 8.98655 22.7885L3.27226 17.1885C2.71422 16.6417 2.71422 15.7535 3.27226 15.2067C3.8303 14.6598 4.73655 14.6598 5.29458 15.2067L8.57137 18.4179V9.19979C8.57137 8.42542 9.20976 7.79979 9.99994 7.79979C10.7901 7.79979 11.4285 8.42542 11.4285 9.19979V18.4179L14.7053 15.2067C15.2633 14.6598 16.1696 14.6598 16.7276 15.2067C17.2857 15.7535 17.2857 16.6417 16.7276 17.1885L11.0133 22.7885H11.0089ZM2.85708 7.79979C2.85708 8.57417 2.21869 9.19979 1.42851 9.19979C0.638332 9.19979 -6.10352e-05 8.57417 -6.10352e-05 7.79979V4.99979C-6.10352e-05 2.68104 1.91958 0.799793 4.28565 0.799793H15.7142C18.0803 0.799793 19.9999 2.68104 19.9999 4.99979V7.79979C19.9999 8.57417 19.3615 9.19979 18.5714 9.19979C17.7812 9.19979 17.1428 8.57417 17.1428 7.79979V4.99979C17.1428 4.22542 16.5044 3.59979 15.7142 3.59979H4.28565C3.49547 3.59979 2.85708 4.22542 2.85708 4.99979V7.79979Z" fill="#F1F5F9"/>
</svg>
