<svg width="27" height="24" viewBox="0 0 27 24" fill="none" xmlns="http://www.w3.org/2000/svg">
<path d="M16.1597 0.748686C17.5003 1.01795 18.3717 2.32801 18.1036 3.67432L17.985 4.26462C17.7117 5.64718 17.2064 6.96242 16.5 8.15856H23.925C25.2914 8.15856 26.4 9.27185 26.4 10.6441C26.4 11.602 25.8586 12.4357 25.0645 12.8499C25.6266 13.3056 25.9875 14.0046 25.9875 14.7865C25.9875 15.9982 25.1213 17.008 23.9817 17.2254C24.2086 17.6034 24.3375 18.0436 24.3375 18.5148C24.3375 19.6177 23.6208 20.555 22.6308 20.876C22.6669 21.0469 22.6875 21.2281 22.6875 21.4145C22.6875 22.7867 21.5789 23.9 20.2125 23.9H15.1852C14.2055 23.9 13.2516 23.61 12.4369 23.0663L10.4517 21.7356C9.075 20.8139 8.25 19.2604 8.25 17.5983V15.615V13.1295V11.8402C8.25 10.3282 8.93578 8.90421 10.1062 7.95661L10.4878 7.65111C11.8542 6.55335 12.7875 5.01027 13.1278 3.29114L13.2464 2.70083C13.5145 1.35452 14.8191 0.479425 16.1597 0.748686ZM1.65 8.98706H4.95C5.86266 8.98706 6.6 9.72753 6.6 10.6441V22.243C6.6 23.1595 5.86266 23.9 4.95 23.9H1.65C0.737344 23.9 0 23.1595 0 22.243V10.6441C0 9.72753 0.737344 8.98706 1.65 8.98706Z" fill="#009E91"/>
</svg>
