<svg width="26" height="25" viewBox="0 0 26 25" fill="none" xmlns="http://www.w3.org/2000/svg">
<path d="M10.8333 5.43478C10.8333 8.43633 8.40821 10.8696 5.41667 10.8696C2.42512 10.8696 0 8.43633 0 5.43478C0 2.43323 2.42512 0 5.41667 0C8.40821 0 10.8333 2.43323 10.8333 5.43478Z" fill="#374B89"/>
<path d="M16.25 12.5C16.25 14.0008 15.0374 15.2174 13.5417 15.2174C12.0459 15.2174 10.8333 14.0008 10.8333 12.5C10.8333 10.9992 12.0459 9.78261 13.5417 9.78261C15.0374 9.78261 16.25 10.9992 16.25 12.5Z" fill="#374B89"/>
<path d="M10.8333 19.5652C10.8333 22.5668 8.40821 25 5.41667 25C2.42512 25 0 22.5668 0 19.5652C0 16.5637 2.42512 14.1304 5.41667 14.1304C8.40821 14.1304 10.8333 16.5637 10.8333 19.5652Z" fill="#374B89"/>
<path d="M26 19.5652C26 22.5668 23.5749 25 20.5833 25C17.5918 25 15.1667 22.5668 15.1667 19.5652C15.1667 16.5637 17.5918 14.1304 20.5833 14.1304C23.5749 14.1304 26 16.5637 26 19.5652Z" fill="#374B89"/>
<path d="M26 5.43478C26 8.43633 23.5749 10.8696 20.5833 10.8696C17.5918 10.8696 15.1667 8.43633 15.1667 5.43478C15.1667 2.43323 17.5918 0 20.5833 0C23.5749 0 26 2.43323 26 5.43478Z" fill="#374B89"/>
</svg>
