<svg width="25" height="24" viewBox="0 0 25 24" fill="none" xmlns="http://www.w3.org/2000/svg">
<path d="M23.5492 0.262625C24.0227 0.590682 24.2711 1.15775 24.182 1.72482L21.182 21.2208C21.1117 21.6754 20.8351 22.0737 20.432 22.2987C20.0289 22.5236 19.546 22.5518 19.1195 22.3737L13.5131 20.0445L10.3021 23.5172C9.88495 23.9718 9.22869 24.1217 8.65212 23.8968C8.07555 23.6718 7.70054 23.1141 7.70054 22.4955V18.5776C7.70054 18.3901 7.77085 18.212 7.89742 18.0761L15.7538 9.50446C16.0257 9.20921 16.0163 8.75462 15.735 8.47342C15.4538 8.19223 14.9991 8.17349 14.7038 8.44062L5.16925 16.9092L1.03012 14.8377C0.533242 14.5893 0.214487 14.0926 0.200424 13.5396C0.186361 12.9866 0.476991 12.471 0.955123 12.1945L21.9554 0.197013C22.457 -0.0888649 23.0758 -0.0607457 23.5492 0.262625Z" fill="#F1F5F9"/>
</svg>
