<svg width="30" height="27" viewBox="0 0 30 27" fill="none" xmlns="http://www.w3.org/2000/svg">
<path d="M17.9 0.704051C17.2352 1.00352 16.8017 1.6788 16.8017 2.41867V6.17674H10.3275C4.70887 6.17674 0.153839 10.8039 0.153839 16.5114C0.153839 23.1644 4.86495 26.1356 5.9459 26.7346C6.09041 26.8168 6.25227 26.8461 6.41412 26.8461C7.04419 26.8461 7.55288 26.3235 7.55288 25.6894C7.55288 25.249 7.30432 24.8438 6.98639 24.5443C6.44302 24.0217 5.70312 22.9941 5.70312 21.209C5.70312 18.0969 8.18873 15.5719 11.2524 15.5719H16.8017V19.33C16.8017 20.0699 17.2294 20.7451 17.9 21.0446C18.5705 21.3441 19.3451 21.2208 19.8885 20.7275L29.1373 12.2719C29.5246 11.9137 29.75 11.4087 29.75 10.8743C29.75 10.34 29.5303 9.83499 29.1373 9.4768L19.8885 1.02114C19.3451 0.522019 18.5647 0.398707 17.9 0.704051Z" fill="#009E91"/>
</svg>
